<?xml version="1.0" encoding="UTF-8" standalone="no"?>
<!-- CPX Logo - Part of the CPX Project -->
<!-- Created with Inkscape (http://www.inkscape.org/)  -->
<!-- Cleaned by hand with Notepad++, completely valid! -->

<svg
	xmlns:svg="http://www.w3.org/2000/svg"
	xmlns="http://www.w3.org/2000/svg"
	xmlns:xlink="http://www.w3.org/1999/xlink"
	width="100%"
	height="100%"
	version="1.1"
	viewBox="0 0 500 500">
	<!-- Remember about "viewBox" (case sensitive!), so that it works on IE -->
	<defs>
		<!-- *************
		     * The big X *
		     ************* -->
		<!-- The colors we use : lightblue and blue -->
		<radialGradient
			id="xcolors"
			cx="271"
			cy="319"
			fx="271"
			fy="317"
			r="231"
			gradientTransform="matrix(-1.2,-1.9,1,-0.6,276,1577)"
			gradientUnits="userSpaceOnUse">
			<stop
				style="stop-color:#0090ff;stop-opacity:1;"
				offset="0" />
			<stop
				style="stop-color:#000065;stop-opacity:1;"
				offset="1" />
		</radialGradient>
		<!-- The shadow -->
		<filter
			id="xshadow"
			width="1.5"
			height="1.5"
			x="-.25"
			y="-.25">
			<feGaussianBlur
				in="SourceAlpha"
				stdDeviation="10"
				result="blur" /><!-- Get a black Shadow -->
			<feMerge><!-- Merge it with the drawing -->
				<feMergeNode in="blur" />
				<feMergeNode in="SourceGraphic" />
			</feMerge>
		</filter>
		<!-- ***************
		     * The Letters *
		     *************** -->
		<!-- The colors we use : yellow and orange -->
		<!-- How to use the colors -->
		<radialGradient
			id="textgradient"
			gradientUnits="userSpaceOnUse"
			gradientTransform="matrix(0,-1.4,0.93,0,-1072,353)"
			cx="62"
			cy="1446"
			fx="62"
			fy="1446"
			r="232">
			<stop
				style="stop-color:#ffc800;stop-opacity:1;"
				offset="0" />
			<stop
				style="stop-color:#ff6400;stop-opacity:1;"
				offset="1" />
		</radialGradient>
		<filter
			id="lettersshadow"
			width="1.5"
			height="1.5"
			x="-.25"
			y="-.25">
			<!-- Note we can't reuse the X shadow because it's too huge for the letters -->
			<feGaussianBlur
			in="SourceAlpha"
			stdDeviation="5"
			result="blur" />
			<feMerge>
				<feMergeNode in="blur" />
				<feMergeNode in="SourceGraphic" />
			</feMerge>
		</filter>
	</defs>
	<g
		id="mainlayer"
		transform="translate(0,-552)">
		<!-- First, draw the X in the background, which will be covered by the text -->
		<path
			style="fill:url(#xcolors);fill-opacity:1;stroke:#ffffff;stroke-width:2.5;stroke-linecap:butt;stroke-linejoin:miter;stroke-miterlimit:4;stroke-opacity:1;stroke-dasharray:none;filter:url(#xshadow)"
			d="m 11,569 c 76,0 128,117 193,234 C 141,918 90,1031 11,1031 c 103,0 173,-75 230,-164 57,89 127,164 230,164 -79,0 -130,-114 -193,-228 65,-116 116,-234 193,-234 -104,0 -174,77 -230,169 -57,-91 -126,-169 -230,-169 z"
			id="xshape" />
		<!-- Then add the text -->
		<g
		   transform="translate(-27,548)"
		   style="fill:url(#textgradient);fill-opacity:1;stroke:#ffffff;stroke-width:3;stroke-linecap:round;stroke-linejoin:round;stroke-miterlimit:0;stroke-opacity:1;stroke-dasharray:none;filter:url(#lettersshadow)"
		   id="flowRoot3820"
		   mask="none"><!-- The letters are from the Harabara (125px) font on Dafont. I converted them to path so that the SVG renders correctly everywhere -->
		  <path
			 d="m 126.91992,264.54421 c -0.81387,9.76564 -4.47598,17.41538 -10.98633,22.94922 -6.67323,5.37109 -15.46228,8.05664 -26.367184,8.05664 -12.695337,0 -22.379572,-3.82487 -29.052734,-11.47461 -6.673179,-7.3242 -10.009764,-18.14776 -10.009766,-32.4707 2e-6,-14.64838 3.417967,-25.6347 10.253906,-32.95899 6.998683,-7.64966 17.089818,-11.47452 30.273438,-11.47461 10.74214,0 19.28705,2.68563 25.63477,8.05664 6.02206,5.20841 9.44003,12.53262 10.2539,21.97266 l -10.49804,0 c -3.90632,6e-5 -6.67324,-1.70893 -8.30079,-5.12695 l 0,0 c -1.13937,-2.11583 -2.52284,-3.98757 -4.15039,-5.61524 -3.25525,-2.44134 -7.568401,-3.66204 -12.93945,-3.66211 -7.487011,7e-5 -13.265,2.44148 -17.333984,7.32422 -3.906268,4.88287 -5.859391,12.04432 -5.859375,21.48438 -1.6e-5,9.11461 1.953107,16.1133 5.859375,20.99609 3.743464,5.04559 9.358692,7.56837 16.845703,7.56836 5.208289,10e-6 9.521441,-1.30207 12.939451,-3.90625 3.0924,-2.44139 5.28966,-6.34763 6.5918,-11.71875 z"
			 style="fill:url(#textgradient);stroke:#ffffff;stroke-width:3;stroke-linecap:round;stroke-linejoin:round;stroke-miterlimit:0;stroke-opacity:1;stroke-dasharray:none"
			 id="letter1" />
		  <path
			 d="m 152.91602,263.56765 0,30.02929 -17.33399,0 0,-75.19531 c 0,-2.44133 0.85449,-4.51652 2.56348,-6.22559 1.70898,-1.7089 3.78417,-2.56339 6.22558,-2.56347 l 28.56446,0 c 8.95177,8e-5 15.62494,2.27873 20.01953,6.83594 4.55723,4.55736 6.83587,11.31191 6.83594,20.26367 -7e-5,8.46359 -2.19733,15.13676 -6.5918,20.01953 -4.39459,4.55732 -10.74224,6.83597 -19.04297,6.83594 z m 0,-15.13672 16.8457,0 c 4.55725,4e-5 7.81246,-0.97652 9.76562,-2.92969 2.11584,-1.79031 3.17378,-4.88276 3.17383,-9.27734 -5e-5,-3.74343 -0.97661,-6.7545 -2.92969,-9.03321 -2.27868,-1.95305 -5.28975,-2.92961 -9.0332,-2.92968 l -17.82226,0 z"
			 style="fill:url(#textgradient);stroke:#ffffff;stroke-width:3;stroke-linecap:round;stroke-linejoin:round;stroke-miterlimit:0;stroke-opacity:1;stroke-dasharray:none"
			 id="letter2" />
		  <path
			 d="m 231.04102,293.59694 26.36718,-42.96875 -26.36718,-41.01562 20.01953,0 17.08984,29.29687 14.64844,-25.14648 c -5e-5,8e-5 -5e-5,8e-5 0,0 -5e-5,8e-5 -5e-5,8e-5 0,0 1.62755,-2.76685 4.15033,-4.15031 7.56836,-4.15039 l 14.89258,0 -26.36719,41.01562 26.36719,42.96875 -19.7754,0 -17.33398,-29.05273 -17.08984,29.05273 z"
			 style="fill:url(#textgradient);stroke:#ffffff;stroke-width:3;stroke-linecap:round;stroke-linejoin:round;stroke-miterlimit:0;stroke-opacity:1;stroke-dasharray:none"
			 id="letter3" />
		  <path
			 d="m 342.125,280.16921 8.30078,0 0,13.42773 -13.42773,0 0,-8.30078 c 0,-3.41795 1.70898,-5.12694 5.12695,-5.12695 z"
			 style="fill:url(#textgradient);stroke:#ffffff;stroke-width:3;stroke-linecap:round;stroke-linejoin:round;stroke-miterlimit:0;stroke-opacity:1;stroke-dasharray:none"
			 id="letter4" />
		  <path
			 d="m 430.86523,264.54421 c -0.81387,9.76564 -4.47598,17.41538 -10.98632,22.94922 -6.67324,5.37109 -15.46229,8.05664 -26.36719,8.05664 -12.69534,0 -22.37957,-3.82487 -29.05274,-11.47461 -6.67317,-7.3242 -10.00976,-18.14776 -10.00976,-32.4707 0,-14.64838 3.41797,-25.6347 10.2539,-32.95899 6.99869,-7.64966 17.08982,-11.47452 30.27344,-11.47461 10.74214,9e-5 19.28705,2.68563 25.63477,8.05664 6.02206,5.20841 9.44003,12.53262 10.2539,21.97266 l -10.49804,0 c -3.90631,6e-5 -6.67324,-1.70893 -8.30078,-5.12695 l 0,0 c -1.13938,-2.11583 -2.52284,-3.98757 -4.15039,-5.61524 -3.25526,-2.44134 -7.56841,-3.66204 -12.93946,-3.66211 -7.48701,7e-5 -13.265,2.44148 -17.33398,7.32422 -3.90627,4.88287 -5.85939,12.04432 -5.85938,21.48438 -1e-5,9.11461 1.95311,16.1133 5.85938,20.99609 3.74346,5.04559 9.35869,7.56837 16.8457,7.56836 5.20829,10e-6 9.52144,-1.30207 12.93945,-3.90625 3.0924,-2.44139 5.28966,-6.34763 6.5918,-11.71875 z"
			 style="fill:url(#textgradient);stroke:#ffffff;stroke-width:3;stroke-linecap:round;stroke-linejoin:round;stroke-miterlimit:0;stroke-opacity:1;stroke-dasharray:none"
			 id="letter5" />
		  <path
			 d="m 439.52734,293.59694 26.36719,-42.96875 -26.36719,-41.01562 20.01953,0 17.08985,29.29687 14.64844,-25.14648 c -6e-5,8e-5 -6e-5,8e-5 0,0 -6e-5,8e-5 -6e-5,8e-5 0,0 1.62755,-2.76685 4.15033,-4.15031 7.56836,-4.15039 l 14.89257,0 -26.36718,41.01562 26.36718,42.96875 -19.77539,0 -17.33398,-29.05273 -17.08985,29.05273 z"
			 style="font-size:125px;fill:url(#textgradient);stroke:#ffffff;stroke-width:3;stroke-linecap:round;stroke-linejoin:round;stroke-miterlimit:0;stroke-opacity:1;stroke-dasharray:none"
			 id="letter6" />
		</g>
	</g>
</svg>
